<svg width="743" height="713" viewBox="0 0 743 713" fill="none" xmlns="http://www.w3.org/2000/svg">
<g clip-path="url(#clip0_207_2)">
<path d="M624.815 168.892H620.915V61.915C620.915 45.4941 614.392 29.7458 602.78 18.1345C591.169 6.52317 575.421 8.07648e-09 559 8.07648e-09H332.35C324.219 -0.000131315 316.168 1.60122 308.656 4.71262C301.144 7.82401 294.319 12.3845 288.569 18.1338C282.82 23.883 278.259 30.7084 275.147 38.2202C272.036 45.7321 270.434 53.7832 270.434 61.914V648.798C270.434 665.219 276.957 680.967 288.568 692.579C300.18 704.19 315.928 710.713 332.349 710.713H558.997C575.418 710.713 591.166 704.19 602.777 692.579C614.389 680.967 620.912 665.219 620.912 648.798V245.04H624.812L624.815 168.892Z" fill="#3F3D56"/>
<path d="M608.215 57.768V652.943C608.213 665.393 603.267 677.333 594.465 686.138C585.662 694.942 573.723 699.891 561.273 699.895H329.973C317.518 699.897 305.572 694.951 296.763 686.146C287.955 677.341 283.004 665.398 283 652.943V57.768C283.004 45.3135 287.954 33.3705 296.763 24.5657C305.571 15.7609 317.516 10.8154 329.971 10.817H358.029C356.651 14.205 356.127 17.8795 356.502 21.5177C356.877 25.1558 358.14 28.6461 360.18 31.6818C362.22 34.7175 364.974 37.2056 368.201 38.9275C371.427 40.6494 375.028 41.5524 378.685 41.557H510.553C514.21 41.5524 517.811 40.6494 521.037 38.9275C524.264 37.2056 527.018 34.7175 529.058 31.6818C531.098 28.6461 532.361 25.1558 532.736 21.5177C533.111 17.8795 532.587 14.205 531.209 10.817H561.264C573.714 10.8191 585.654 15.7652 594.458 24.5678C603.262 33.3704 608.21 45.309 608.215 57.759V57.768Z" fill="white"/>
<path d="M445.565 296.694C498.896 296.694 542.13 253.46 542.13 200.129C542.13 146.798 498.896 103.564 445.565 103.564C392.234 103.564 349 146.798 349 200.129C349 253.46 392.234 296.694 445.565 296.694Z" fill="#E42626"/>
<path d="M550.881 400.596H345.344C344.335 400.595 343.367 400.194 342.654 399.48C341.94 398.767 341.539 397.799 341.538 396.79V345.806C341.539 344.797 341.941 343.83 342.654 343.116C343.368 342.403 344.335 342.001 345.344 342H550.881C551.89 342.001 552.857 342.403 553.571 343.116C554.284 343.83 554.686 344.797 554.687 345.806V396.791C554.686 397.8 554.284 398.767 553.571 399.481C552.857 400.194 551.89 400.596 550.881 400.597V400.596ZM345.344 343.522C344.738 343.523 344.158 343.763 343.729 344.192C343.301 344.62 343.06 345.2 343.06 345.806V396.791C343.06 397.397 343.301 397.977 343.729 398.405C344.158 398.834 344.738 399.074 345.344 399.075H550.881C551.487 399.074 552.067 398.834 552.495 398.405C552.924 397.977 553.164 397.397 553.165 396.791V345.806C553.164 345.2 552.924 344.62 552.495 344.192C552.067 343.763 551.487 343.523 550.881 343.522H345.344Z" fill="#E6E6E6"/>
<path d="M408.908 360.361C408.201 360.361 407.524 360.642 407.024 361.141C406.524 361.641 406.244 362.319 406.244 363.025C406.244 363.732 406.524 364.41 407.024 364.91C407.524 365.409 408.201 365.69 408.908 365.69H534.513C535.219 365.717 535.907 365.462 536.426 364.982C536.945 364.502 537.251 363.835 537.278 363.129C537.305 362.423 537.051 361.735 536.57 361.216C536.09 360.697 535.423 360.391 534.717 360.364C534.678 360.362 534.639 360.362 534.6 360.362H408.908L408.908 360.361Z" fill="#E6E6E6"/>
<path d="M408.908 376.345C408.201 376.345 407.524 376.626 407.024 377.125C406.524 377.625 406.244 378.303 406.244 379.009C406.244 379.716 406.524 380.394 407.024 380.894C407.524 381.393 408.201 381.674 408.908 381.674H534.513C535.219 381.701 535.907 381.446 536.426 380.966C536.945 380.486 537.251 379.819 537.278 379.113C537.305 378.407 537.051 377.719 536.57 377.2C536.09 376.681 535.423 376.375 534.717 376.348C534.678 376.346 534.639 376.346 534.6 376.346H408.908L408.908 376.345Z" fill="#E6E6E6"/>
<path d="M550.881 485.576H345.344C344.335 485.575 343.367 485.174 342.654 484.46C341.94 483.746 341.539 482.779 341.538 481.77V430.786C341.539 429.777 341.941 428.81 342.654 428.096C343.368 427.383 344.335 426.981 345.344 426.98H550.881C551.89 426.981 552.857 427.383 553.571 428.096C554.284 428.81 554.686 429.777 554.687 430.786V481.771C554.685 482.78 554.284 483.747 553.57 484.46C552.857 485.173 551.89 485.575 550.881 485.576V485.576ZM345.344 428.502C344.738 428.502 344.158 428.743 343.729 429.172C343.301 429.6 343.06 430.18 343.06 430.786V481.771C343.06 482.377 343.301 482.957 343.729 483.385C344.158 483.814 344.738 484.054 345.344 484.055H550.881C551.487 484.054 552.067 483.814 552.495 483.385C552.924 482.957 553.164 482.377 553.165 481.771V430.786C553.164 430.18 552.924 429.6 552.495 429.172C552.067 428.743 551.487 428.502 550.881 428.502H345.344Z" fill="#E6E6E6"/>
<path d="M408.908 445.617C408.201 445.617 407.524 445.898 407.024 446.397C406.524 446.897 406.244 447.575 406.244 448.281C406.244 448.988 406.524 449.666 407.024 450.166C407.524 450.665 408.201 450.946 408.908 450.946H534.513C535.21 450.942 535.877 450.665 536.372 450.175C536.867 449.686 537.151 449.021 537.163 448.325C537.174 447.628 536.912 446.955 536.433 446.449C535.954 445.943 535.296 445.645 534.6 445.618H408.908V445.617Z" fill="#E6E6E6"/>
<path d="M408.908 461.605C408.201 461.605 407.524 461.886 407.024 462.385C406.524 462.885 406.244 463.563 406.244 464.269C406.244 464.976 406.524 465.654 407.024 466.154C407.524 466.653 408.201 466.934 408.908 466.934H534.513C535.21 466.93 535.877 466.653 536.372 466.164C536.867 465.674 537.151 465.009 537.163 464.313C537.174 463.616 536.912 462.943 536.433 462.437C535.954 461.931 535.296 461.633 534.6 461.606H408.908V461.605Z" fill="#E6E6E6"/>
<path d="M550.881 570.834H345.344C344.335 570.833 343.367 570.432 342.654 569.718C341.94 569.005 341.539 568.037 341.538 567.028V516.044C341.539 515.035 341.941 514.068 342.654 513.354C343.368 512.641 344.335 512.239 345.344 512.238H550.881C551.89 512.239 552.857 512.641 553.571 513.354C554.284 514.068 554.686 515.035 554.687 516.044V567.029C554.686 568.038 554.284 569.005 553.571 569.719C552.857 570.432 551.89 570.834 550.881 570.835V570.834ZM345.344 513.76C344.738 513.76 344.158 514.001 343.729 514.43C343.301 514.858 343.06 515.438 343.06 516.044V567.029C343.06 567.635 343.301 568.215 343.729 568.643C344.158 569.072 344.738 569.312 345.344 569.313H550.881C551.487 569.312 552.067 569.072 552.495 568.643C552.924 568.215 553.164 567.635 553.165 567.029V516.044C553.164 515.438 552.924 514.858 552.495 514.43C552.067 514.001 551.487 513.76 550.881 513.76H345.344Z" fill="#E6E6E6"/>
<path d="M408.908 530.878C408.201 530.878 407.524 531.159 407.024 531.658C406.524 532.158 406.244 532.836 406.244 533.542C406.244 534.249 406.524 534.927 407.024 535.427C407.524 535.926 408.201 536.207 408.908 536.207H534.513C534.863 536.22 535.212 536.165 535.54 536.043C535.868 535.922 536.169 535.737 536.426 535.499C536.683 535.261 536.89 534.975 537.036 534.657C537.183 534.339 537.265 533.996 537.278 533.646C537.292 533.296 537.236 532.947 537.114 532.619C536.993 532.291 536.808 531.99 536.57 531.733C536.332 531.476 536.046 531.269 535.728 531.123C535.41 530.976 535.067 530.894 534.717 530.881C534.678 530.879 534.639 530.879 534.6 530.879H408.908L408.908 530.878Z" fill="#E6E6E6"/>
<path d="M408.908 546.865C408.201 546.865 407.524 547.146 407.024 547.645C406.524 548.145 406.244 548.823 406.244 549.529C406.244 550.236 406.524 550.914 407.024 551.414C407.524 551.913 408.201 552.194 408.908 552.194H534.513C534.863 552.207 535.212 552.152 535.54 552.03C535.868 551.909 536.169 551.724 536.426 551.486C536.683 551.248 536.89 550.962 537.036 550.644C537.183 550.326 537.265 549.983 537.278 549.633C537.292 549.283 537.236 548.934 537.114 548.606C536.993 548.278 536.808 547.977 536.57 547.72C536.332 547.463 536.046 547.256 535.728 547.11C535.41 546.963 535.067 546.881 534.717 546.868C534.678 546.866 534.639 546.866 534.6 546.866H408.908L408.908 546.865Z" fill="#E6E6E6"/>
<path d="M740.479 712.573H1.93799C0.866988 712.573 0 712.105 0 711.528C0 710.951 0.867988 710.483 1.93799 710.483H740.479C741.549 710.483 742.417 710.951 742.417 711.528C742.417 712.105 741.55 712.573 740.479 712.573Z" fill="#E6E6E6"/>
<path d="M709.201 671.808C706.046 672.917 702.658 673.195 699.364 672.615C696.07 672.034 692.981 670.616 690.395 668.495C683.808 662.967 681.743 653.859 680.063 645.425L675.093 620.48L685.498 627.645C692.981 632.797 700.632 638.115 705.814 645.578C710.996 653.041 713.257 663.229 709.094 671.304" fill="#E6E6E6"/>
<path d="M707.594 703.745C708.904 694.203 710.251 684.539 709.332 674.896C708.516 666.331 705.903 657.966 700.583 651.107C697.759 647.473 694.324 644.36 690.43 641.907C689.415 641.266 688.48 642.875 689.491 643.513C696.228 647.771 701.439 654.059 704.372 661.469C707.612 669.71 708.132 678.693 707.572 687.446C707.234 692.74 706.519 697.999 705.798 703.251C705.741 703.489 705.777 703.739 705.898 703.951C706.018 704.164 706.215 704.322 706.448 704.395C706.686 704.459 706.939 704.427 707.154 704.305C707.368 704.183 707.525 703.982 707.592 703.745H707.594Z" fill="#F2F2F2"/>
<path d="M698.167 688.435C696.814 690.492 694.954 692.165 692.766 693.294C690.578 694.424 688.136 694.97 685.676 694.882C679.353 694.582 674.081 690.169 669.336 685.982L655.301 673.587L664.59 673.143C671.27 672.823 678.123 672.525 684.49 674.585C690.857 676.645 696.721 681.603 697.884 688.185" fill="#E6E6E6"/>
<path d="M711.295 709.23C704.995 698.074 697.677 685.675 684.61 681.712C680.977 680.614 677.167 680.22 673.386 680.553C672.194 680.653 672.492 682.493 673.686 682.39C680.024 681.864 686.35 683.537 691.598 687.129C696.649 690.567 700.581 695.346 703.909 700.415C705.948 703.515 707.774 706.756 709.6 709.988C710.18 711.02 711.886 710.275 711.295 709.23Z" fill="#F2F2F2"/>
<path d="M370.986 386.971C379.815 386.971 386.972 379.814 386.972 370.985C386.972 362.156 379.815 354.999 370.986 354.999C362.157 354.999 355 362.156 355 370.985C355 379.814 362.157 386.971 370.986 386.971Z" fill="#E42626"/>
<path d="M363.333 367.999C363.149 367.999 363 369.192 363 370.663C363 372.134 363.149 373.328 363.333 373.328H379.052C379.236 373.352 379.388 372.179 379.391 370.708C379.493 369.792 379.381 368.865 379.063 368H363.333V367.999Z" fill="#E6E6E6"/>
<path d="M370.986 472.264C379.815 472.264 386.972 465.107 386.972 456.278C386.972 447.449 379.815 440.292 370.986 440.292C362.157 440.292 355 447.449 355 456.278C355 465.107 362.157 472.264 370.986 472.264Z" fill="#E42626"/>
<path d="M363.333 453.292C363.149 453.292 363 454.485 363 455.956C363 457.427 363.149 458.621 363.333 458.621H379.052C379.236 458.645 379.388 457.472 379.391 456.001C379.493 455.085 379.381 454.158 379.063 453.293H363.333V453.292Z" fill="#E6E6E6"/>
<path d="M370.986 557.522C379.815 557.522 386.972 550.365 386.972 541.536C386.972 532.707 379.815 525.55 370.986 525.55C362.157 525.55 355 532.707 355 541.536C355 550.365 362.157 557.522 370.986 557.522Z" fill="#E42626"/>
<path d="M363.333 538.55C363.149 538.55 363 539.743 363 541.214C363 542.685 363.149 543.879 363.333 543.879H379.052C379.236 543.903 379.388 542.73 379.391 541.259C379.493 540.343 379.381 539.416 379.063 538.551H363.333V538.55Z" fill="#E6E6E6"/>
<path d="M424.705 173.613L419.048 179.269L466.425 226.646L472.081 220.989L424.705 173.613Z" fill="white"/>
<path d="M472.081 179.269L466.425 173.613L419.048 220.989L424.705 226.646L472.081 179.269Z" fill="white"/>
<path d="M90.2594 456.135C91.6452 455.644 92.9066 454.856 93.9548 453.825C95.003 452.795 95.8125 451.546 96.3261 450.169C96.8398 448.792 97.0452 447.318 96.9279 445.853C96.8106 444.388 96.3734 442.966 95.6471 441.688L119.212 414.824L100.817 412.286L81.2592 438.185C79.1928 439.548 77.698 441.621 77.058 444.012C76.418 446.403 76.6772 448.945 77.7866 451.158C78.896 453.37 80.7785 455.099 83.0773 456.016C85.3761 456.934 87.9315 456.976 90.2594 456.135V456.135Z" fill="#9F616A"/>
<path d="M118.679 694.215L102.244 694.214L94.425 630.82L118.682 630.821L118.679 694.215Z" fill="#9F616A"/>
<path d="M122.871 710.147L69.8759 710.145V709.474C69.8762 704.004 72.0495 698.758 75.9178 694.889C79.786 691.021 85.0324 688.848 90.5028 688.848H90.5042L122.872 688.849L122.871 710.147Z" fill="#2F2E41"/>
<path d="M204.713 680.461L189.017 685.334L162.751 627.11L185.917 619.918L204.713 680.461Z" fill="#9F616A"/>
<path d="M213.441 694.433L162.829 710.147L162.63 709.507C161.008 704.282 161.528 698.627 164.075 693.786C166.623 688.945 170.988 685.313 176.213 683.691L176.214 683.69L207.126 674.093L213.441 694.433Z" fill="#2F2E41"/>
<path d="M106.093 401.943L81.7518 429.82L100.808 431.535L106.093 401.943Z" fill="#E6E6E6"/>
<path d="M96.582 437.876C96.582 437.876 88.127 442.103 87.07 461.127C86.013 480.151 90.241 529.827 90.241 529.827C90.241 529.827 86.014 552.021 90.241 572.101C94.468 592.181 86.014 665.101 91.298 665.101C96.582 665.101 124.06 668.272 125.117 665.101C126.174 661.93 127.231 614.372 127.231 614.372C127.231 614.372 135.686 590.064 127.231 575.272C127.231 575.272 156.752 626.82 175.846 666.161C180.025 674.771 211.779 665.104 206.495 655.592C201.211 646.08 188.529 602.749 188.529 602.749C188.529 602.749 179.017 571.043 162.108 557.304L170.563 489.665C170.563 489.665 188.53 444.22 177.963 437.879C167.396 431.538 96.582 437.876 96.582 437.876Z" fill="#2F2E41"/>
<path d="M128.287 265.607C143.463 265.607 155.765 253.305 155.765 238.129C155.765 222.953 143.463 210.651 128.287 210.651C113.111 210.651 100.809 222.953 100.809 238.129C100.809 253.305 113.111 265.607 128.287 265.607Z" fill="#A0616A"/>
<path d="M158.936 267.721L124.776 287.801C124.776 287.801 111.696 295.167 106.81 307.881C101.602 321.431 104.629 340.509 106.81 344.871C111.037 353.326 105.037 374.463 105.037 374.463L99.753 423.078C99.753 423.078 80.73 441.044 95.526 443.158C110.322 445.272 136.743 442.101 152.596 443.158C168.449 444.215 186.415 446.329 181.131 435.758C175.847 425.187 169.506 417.791 175.847 396.658C180.809 380.118 180.594 318.275 180.266 292.158C180.221 288.571 179.259 285.056 177.472 281.946C175.684 278.836 173.131 276.235 170.055 274.391L158.936 267.721Z" fill="#E5E5E5"/>
<path opacity="0.1" d="M143.616 301.013L146.786 365.481L116.06 427.704L110.849 425.721L142.555 367.594L143.616 301.013Z" fill="black"/>
<path opacity="0.1" d="M178.488 379.219V371.819L142.559 431.005L178.488 379.219Z" fill="black"/>
<path d="M108.785 212.674L104.246 210.858C104.246 210.858 113.746 200.401 126.959 201.31L123.242 197.218C123.242 197.218 132.327 193.581 140.587 203.128C144.929 208.147 149.952 214.047 153.087 220.692H157.952L155.922 225.163L163.028 229.634L155.734 228.834C156.425 232.694 156.188 236.663 155.044 240.413L155.244 243.947C155.244 243.947 146.785 230.858 146.785 229.042V233.589C146.785 233.589 142.242 229.497 142.242 226.769L139.764 229.952L138.525 224.952L123.245 229.952L125.721 225.858L116.221 227.222L119.938 222.222C119.938 222.222 109.201 228.132 108.788 233.134C108.375 238.136 103.007 244.5 103.007 244.5L100.529 239.953C100.529 239.953 96.813 219.494 108.785 212.674Z" fill="#2F2E41"/>
<path d="M126.563 459.125C127.839 458.397 128.941 457.397 129.789 456.196C130.638 454.996 131.213 453.624 131.474 452.177C131.735 450.731 131.676 449.244 131.3 447.823C130.925 446.402 130.242 445.08 129.3 443.951L147.723 413.331L129.169 414.099L114.519 443.058C112.728 444.766 111.625 447.071 111.419 449.538C111.214 452.004 111.92 454.461 113.405 456.441C114.889 458.422 117.048 459.789 119.474 460.283C121.899 460.778 124.421 460.366 126.563 459.125V459.125Z" fill="#9F616A"/>
<path d="M168.449 281.462L176.375 279.877C176.375 279.877 200.154 297.315 192.756 332.191C185.358 367.067 152.596 419.91 152.596 419.91C152.596 419.91 145.196 429.422 143.084 431.535C140.972 433.648 136.743 431.535 138.857 434.706C140.971 437.877 135.686 439.99 135.686 439.99C135.686 439.99 112.435 439.99 114.549 431.535C116.663 423.08 152.596 362.835 152.596 362.835L147.312 306.822C147.312 306.822 143.083 279.348 168.449 281.462Z" fill="#E5E5E5"/>
</g>
<defs>
<clipPath id="clip0_207_2">
<rect width="742.417" height="712.573" fill="white"/>
</clipPath>
</defs>
</svg>
