<svg width="161" height="20" viewBox="0 0 161 20" fill="none" xmlns="http://www.w3.org/2000/svg">
<path d="M4.92 18.696C4.168 18.696 3.576 18.408 3.144 17.832C2.76 17.304 2.568 16.6 2.568 15.72C2.568 14.632 2.936 13.328 3.672 11.808C1.368 11.664 0.216 10.52 0.216 8.376C0.216 7.16 0.6 5.848 1.368 4.44C1.64 3.928 1.944 3.448 2.28 3C2.616 2.536 2.984 2.128 3.384 1.776C4.392 0.831999 5.424 0.36 6.48 0.36C8.448 0.36 9.432 1.408 9.432 3.504C9.432 4.064 9.336 4.656 9.144 5.28C8.968 5.904 8.672 6.56 8.256 7.248C7.856 7.936 7.432 8.616 6.984 9.288C6.536 9.944 6.104 10.608 5.688 11.28C6.44 11.152 7.272 10.928 8.184 10.608C8.232 10.592 8.288 10.584 8.352 10.584C8.48 10.584 8.544 10.64 8.544 10.752C8.544 10.848 8.456 10.936 8.28 11.016C7.752 11.192 7.248 11.344 6.768 11.472C6.288 11.6 5.832 11.696 5.4 11.76C4.488 13.344 4.032 14.744 4.032 15.96C4.032 16.552 4.128 17.04 4.32 17.424C4.592 17.888 4.968 18.12 5.448 18.12C6.328 18.12 7.352 17.464 8.52 16.152C9.016 15.608 9.808 14.392 10.896 12.504C11.12 11.208 11.416 10.128 11.784 9.264C12.168 8.368 12.672 7.92 13.296 7.92C13.712 7.92 13.92 8.168 13.92 8.664C13.92 8.92 13.832 9.264 13.656 9.696C13.528 10 13.376 10.296 13.2 10.584C13.04 10.872 12.872 11.152 12.696 11.424L11.832 12.624C11.448 13.648 11.256 14.68 11.256 15.72C11.256 16.056 11.28 16.36 11.328 16.632C11.52 17.656 12 18.168 12.768 18.168C14.736 18.168 16.872 15.96 19.176 11.544C19.976 10.04 20.376 8.424 20.376 6.696C20.376 5.096 19.92 3.96 19.008 3.288C18.608 2.984 18.04 2.832 17.304 2.832C16.52 2.832 15.944 3.048 15.576 3.48C15.448 3.608 15.336 3.672 15.24 3.672C15.144 3.672 15.096 3.632 15.096 3.552C15.096 3.472 15.128 3.4 15.192 3.336C15.72 2.696 16.6 2.376 17.832 2.376C18.552 2.376 19.16 2.496 19.656 2.736C21.16 3.472 21.912 4.856 21.912 6.888C21.912 8.392 21.504 9.928 20.688 11.496C20.224 12.392 19.728 13.224 19.2 13.992C18.672 14.76 18.112 15.448 17.52 16.056C15.904 17.768 14.32 18.624 12.768 18.624C11.536 18.624 10.76 18.096 10.44 17.04C10.328 16.688 10.272 16.28 10.272 15.816C10.272 15.4 10.32 14.968 10.416 14.52C10.112 14.968 9.808 15.384 9.504 15.768C9.216 16.136 8.92 16.472 8.616 16.776C7.336 18.056 6.104 18.696 4.92 18.696ZM3.888 11.376C4.256 10.72 4.624 10.064 4.992 9.408C5.376 8.752 5.752 8.088 6.12 7.416C7 5.832 7.568 4.536 7.824 3.528C7.92 3.112 7.968 2.736 7.968 2.4C7.968 1.36 7.512 0.839999 6.6 0.839999C5.944 0.839999 5.216 1.192 4.416 1.896C3.552 2.664 2.824 3.664 2.232 4.896C1.608 6.192 1.296 7.376 1.296 8.448C1.296 10.224 2.16 11.2 3.888 11.376ZM23.2734 18.096C22.6494 18.096 22.1134 17.896 21.6654 17.496C21.4254 17.272 21.2494 17.016 21.1374 16.728C21.0414 16.424 20.9934 16.08 20.9934 15.696C20.9934 14.224 21.6014 12.76 22.8174 11.304C23.8414 10.072 24.9054 9.456 26.0094 9.456C26.3774 9.456 26.6894 9.552 26.9454 9.744C27.2174 9.968 27.3534 10.256 27.3534 10.608C27.3534 11.488 26.7694 12.368 25.6014 13.248C25.2334 13.52 24.7454 13.76 24.1374 13.968C23.4654 14.192 22.9774 14.304 22.6734 14.304C22.4494 14.848 22.3374 15.424 22.3374 16.032C22.3374 17.072 22.7214 17.592 23.4894 17.592C24.4974 17.592 25.4414 16.936 26.3214 15.624L26.4174 15.48L26.8254 15.648L26.7534 15.792C26.3534 16.592 25.8494 17.176 25.2414 17.544C24.6334 17.912 23.9774 18.096 23.2734 18.096ZM22.8174 13.896C23.0894 13.896 23.4654 13.808 23.9454 13.632C24.2174 13.52 24.4734 13.4 24.7134 13.272C24.9694 13.144 25.1934 13 25.3854 12.84C26.2654 12.104 26.7054 11.328 26.7054 10.512C26.7054 10.16 26.5774 9.984 26.3214 9.984C25.8734 9.984 25.1934 10.536 24.2814 11.64C23.8174 12.2 23.3294 12.952 22.8174 13.896ZM31.209 8.712C30.665 8.712 30.393 8.448 30.393 7.92C30.393 7.392 30.649 7.128 31.161 7.128C31.705 7.128 31.977 7.392 31.977 7.92C31.977 8.448 31.721 8.712 31.209 8.712ZM27.945 18C27.481 18 27.249 17.768 27.249 17.304C27.249 17.016 27.345 16.624 27.537 16.128C27.953 15.104 28.345 14.16 28.713 13.296C29.081 12.432 29.425 11.648 29.745 10.944C29.793 10.864 29.817 10.776 29.817 10.68C29.817 10.456 29.713 10.216 29.505 9.96L30.825 9.936C31.273 9.936 31.497 10.048 31.497 10.272C31.497 10.336 31.481 10.408 31.449 10.488C31.417 10.552 31.377 10.648 31.329 10.776L29.121 15.888C28.897 16.416 28.785 16.864 28.785 17.232C28.785 17.616 28.905 17.872 29.145 18H27.945ZM30.99 18.168C31.294 17.4 31.694 16.44 32.19 15.288C32.702 14.136 33.278 12.824 33.918 11.352C34.046 11.032 34.166 10.776 34.278 10.584C34.406 10.392 34.518 10.24 34.614 10.128C34.822 9.888 35.102 9.792 35.454 9.84L35.958 9.912C36.07 9.928 36.166 9.944 36.246 9.96C36.342 9.96 36.422 9.952 36.486 9.936C36.166 10.096 35.79 10.552 35.358 11.304C34.942 12.04 34.478 13.048 33.966 14.328C34.142 14.104 34.366 13.808 34.638 13.44C34.91 13.056 35.254 12.616 35.67 12.12C36.134 11.576 36.614 11.072 37.11 10.608C37.606 10.144 38.086 9.912 38.55 9.912C38.918 9.912 39.182 10.032 39.342 10.272C39.502 10.512 39.582 10.784 39.582 11.088C39.582 11.456 39.438 11.784 39.15 12.072C38.862 12.36 38.582 12.504 38.31 12.504C38.198 12.504 38.078 12.48 37.95 12.432C37.838 12.384 37.782 12.312 37.782 12.216C37.782 12.136 37.798 12.064 37.83 12C37.862 11.92 37.878 11.832 37.878 11.736C37.878 11.496 37.766 11.376 37.542 11.376C37.462 11.376 37.35 11.4 37.206 11.448C37.078 11.48 36.902 11.608 36.678 11.832C36.23 12.248 35.742 12.752 35.214 13.344C34.702 13.92 34.214 14.568 33.75 15.288C33.302 16.008 32.934 16.8 32.646 17.664C32.566 17.904 32.326 18.032 31.926 18.048C31.382 18.08 31.07 18.12 30.99 18.168ZM44.9081 18C43.9801 18 43.5161 17.408 43.5161 16.224C43.5161 15.712 43.6041 15.232 43.7801 14.784C42.5801 16.896 41.4281 17.952 40.3241 17.952C40.2601 17.952 40.1961 17.952 40.1321 17.952C40.0681 17.936 39.9961 17.92 39.9161 17.904C39.1161 17.68 38.7161 17.072 38.7161 16.08C38.7161 15.344 38.9161 14.528 39.3161 13.632C39.5081 13.2 39.7161 12.792 39.9401 12.408C40.1801 12.008 40.4441 11.64 40.7321 11.304C41.7401 10.088 42.8921 9.48 44.1881 9.48C44.7641 9.48 45.3001 9.624 45.7961 9.912C46.0681 9.384 46.3881 8.648 46.7561 7.704C47.1401 6.744 47.5801 5.584 48.0761 4.224C48.2681 3.696 48.4681 3.352 48.6761 3.192C48.9161 3.032 49.2361 2.96 49.6361 2.976L50.1401 3.048C50.2521 3.064 50.3481 3.08 50.4281 3.096C50.5081 3.096 50.5801 3.088 50.6441 3.072C50.4841 3.248 50.1881 3.744 49.7561 4.56C49.3241 5.36 48.7641 6.488 48.0761 7.944C47.3721 9.416 46.7721 10.728 46.2761 11.88C45.7961 13.032 45.4121 14.008 45.1241 14.808C44.8841 15.48 44.7641 16.064 44.7641 16.56C44.7641 17.104 44.9481 17.376 45.3161 17.376C45.7961 17.376 46.3081 16.936 46.8521 16.056L46.9481 15.936L47.3321 16.128L47.2361 16.248C46.5001 17.416 45.7241 18 44.9081 18ZM40.5641 17.28C41.0921 17.28 41.7321 16.76 42.4841 15.72C43.2841 14.584 44.3481 12.776 45.6761 10.296C45.4841 10.104 45.2521 10.008 44.9801 10.008C44.3241 10.008 43.5561 10.448 42.6761 11.328C41.8441 12.144 41.1481 13.08 40.5881 14.136C40.1401 14.968 39.9161 15.696 39.9161 16.32C39.9161 16.96 40.1321 17.28 40.5641 17.28ZM56.9747 18.696C56.2227 18.696 55.6307 18.408 55.1987 17.832C54.8147 17.304 54.6227 16.6 54.6227 15.72C54.6227 14.632 54.9907 13.328 55.7267 11.808C53.4227 11.664 52.2707 10.52 52.2707 8.376C52.2707 7.16 52.6547 5.848 53.4227 4.44C53.6947 3.928 53.9987 3.448 54.3347 3C54.6707 2.536 55.0387 2.128 55.4387 1.776C56.4467 0.831999 57.4787 0.36 58.5347 0.36C60.5027 0.36 61.4867 1.408 61.4867 3.504C61.4867 4.064 61.3907 4.656 61.1987 5.28C61.0227 5.904 60.7267 6.56 60.3107 7.248C59.9107 7.936 59.4867 8.616 59.0387 9.288C58.5907 9.944 58.1587 10.608 57.7427 11.28C58.4947 11.152 59.3267 10.928 60.2387 10.608C60.2867 10.592 60.3427 10.584 60.4067 10.584C60.5347 10.584 60.5987 10.64 60.5987 10.752C60.5987 10.848 60.5107 10.936 60.3347 11.016C59.8067 11.192 59.3027 11.344 58.8227 11.472C58.3427 11.6 57.8867 11.696 57.4547 11.76C56.5427 13.344 56.0867 14.744 56.0867 15.96C56.0867 16.552 56.1827 17.04 56.3747 17.424C56.6467 17.888 57.0227 18.12 57.5027 18.12C58.3827 18.12 59.4067 17.464 60.5747 16.152C61.0707 15.608 61.8627 14.392 62.9507 12.504C63.1747 11.208 63.4707 10.128 63.8387 9.264C64.2227 8.368 64.7267 7.92 65.3507 7.92C65.7667 7.92 65.9747 8.168 65.9747 8.664C65.9747 8.92 65.8867 9.264 65.7107 9.696C65.5827 10 65.4307 10.296 65.2547 10.584C65.0947 10.872 64.9267 11.152 64.7507 11.424L63.8867 12.624C63.5027 13.648 63.3107 14.68 63.3107 15.72C63.3107 16.056 63.3347 16.36 63.3827 16.632C63.5747 17.656 64.0547 18.168 64.8227 18.168C66.7907 18.168 68.9267 15.96 71.2307 11.544C72.0307 10.04 72.4307 8.424 72.4307 6.696C72.4307 5.096 71.9747 3.96 71.0627 3.288C70.6627 2.984 70.0947 2.832 69.3587 2.832C68.5747 2.832 67.9987 3.048 67.6307 3.48C67.5027 3.608 67.3907 3.672 67.2947 3.672C67.1987 3.672 67.1507 3.632 67.1507 3.552C67.1507 3.472 67.1827 3.4 67.2467 3.336C67.7747 2.696 68.6547 2.376 69.8867 2.376C70.6067 2.376 71.2147 2.496 71.7107 2.736C73.2147 3.472 73.9667 4.856 73.9667 6.888C73.9667 8.392 73.5587 9.928 72.7427 11.496C72.2787 12.392 71.7827 13.224 71.2547 13.992C70.7267 14.76 70.1667 15.448 69.5747 16.056C67.9587 17.768 66.3747 18.624 64.8227 18.624C63.5907 18.624 62.8147 18.096 62.4947 17.04C62.3827 16.688 62.3267 16.28 62.3267 15.816C62.3267 15.4 62.3747 14.968 62.4707 14.52C62.1667 14.968 61.8627 15.384 61.5587 15.768C61.2707 16.136 60.9747 16.472 60.6707 16.776C59.3907 18.056 58.1587 18.696 56.9747 18.696ZM55.9427 11.376C56.3107 10.72 56.6787 10.064 57.0467 9.408C57.4307 8.752 57.8067 8.088 58.1747 7.416C59.0547 5.832 59.6227 4.536 59.8787 3.528C59.9747 3.112 60.0227 2.736 60.0227 2.4C60.0227 1.36 59.5667 0.839999 58.6547 0.839999C57.9987 0.839999 57.2707 1.192 56.4707 1.896C55.6067 2.664 54.8787 3.664 54.2867 4.896C53.6627 6.192 53.3507 7.376 53.3507 8.448C53.3507 10.224 54.2147 11.2 55.9427 11.376ZM74.9681 18C73.8001 18 73.2161 17.288 73.2161 15.864C73.2161 15.16 73.3841 14.416 73.7201 13.632C74.2001 12.496 74.8801 11.536 75.7601 10.752C76.6241 9.984 77.4401 9.6 78.2081 9.6C79.3921 9.6 79.9841 10.296 79.9841 11.688C79.9841 12.408 79.8081 13.168 79.4561 13.968C79.0401 14.928 78.4401 15.8 77.6561 16.584C76.6801 17.528 75.7841 18 74.9681 18ZM75.3521 17.472C75.7201 17.472 76.1121 17.32 76.5281 17.016C77.0561 16.632 77.6561 15.832 78.3281 14.616C79.0641 13.304 79.4321 12.248 79.4321 11.448C79.4321 10.728 79.1281 10.368 78.5201 10.368C78.0401 10.368 77.4961 10.672 76.8881 11.28C76.2961 11.872 75.7921 12.624 75.3761 13.536C74.8161 14.736 74.5361 15.696 74.5361 16.416C74.5361 17.12 74.8081 17.472 75.3521 17.472ZM79.5056 18.168C79.8096 17.4 80.2096 16.44 80.7056 15.288C81.2176 14.136 81.7936 12.824 82.4336 11.352C82.5616 11.032 82.6816 10.776 82.7936 10.584C82.9216 10.392 83.0336 10.24 83.1296 10.128C83.3376 9.888 83.6176 9.792 83.9696 9.84L84.4736 9.912C84.5856 9.928 84.6816 9.944 84.7616 9.96C84.8576 9.96 84.9376 9.952 85.0016 9.936C84.6816 10.096 84.3056 10.552 83.8736 11.304C83.4576 12.04 82.9936 13.048 82.4816 14.328C82.6576 14.104 82.8816 13.808 83.1536 13.44C83.4256 13.056 83.7696 12.616 84.1856 12.12C84.6496 11.576 85.1296 11.072 85.6256 10.608C86.1216 10.144 86.6016 9.912 87.0656 9.912C87.4336 9.912 87.6976 10.032 87.8576 10.272C88.0176 10.512 88.0976 10.784 88.0976 11.088C88.0976 11.456 87.9536 11.784 87.6656 12.072C87.3776 12.36 87.0976 12.504 86.8256 12.504C86.7136 12.504 86.5936 12.48 86.4656 12.432C86.3536 12.384 86.2976 12.312 86.2976 12.216C86.2976 12.136 86.3136 12.064 86.3456 12C86.3776 11.92 86.3936 11.832 86.3936 11.736C86.3936 11.496 86.2816 11.376 86.0576 11.376C85.9776 11.376 85.8656 11.4 85.7216 11.448C85.5936 11.48 85.4176 11.608 85.1936 11.832C84.7456 12.248 84.2576 12.752 83.7296 13.344C83.2176 13.92 82.7296 14.568 82.2656 15.288C81.8176 16.008 81.4496 16.8 81.1616 17.664C81.0816 17.904 80.8416 18.032 80.4416 18.048C79.8976 18.08 79.5856 18.12 79.5056 18.168ZM93.4238 18C92.4958 18 92.0318 17.408 92.0318 16.224C92.0318 15.712 92.1198 15.232 92.2958 14.784C91.0958 16.896 89.9438 17.952 88.8398 17.952C88.7758 17.952 88.7118 17.952 88.6478 17.952C88.5838 17.936 88.5118 17.92 88.4318 17.904C87.6318 17.68 87.2318 17.072 87.2318 16.08C87.2318 15.344 87.4318 14.528 87.8318 13.632C88.0238 13.2 88.2318 12.792 88.4558 12.408C88.6958 12.008 88.9598 11.64 89.2478 11.304C90.2558 10.088 91.4078 9.48 92.7038 9.48C93.2798 9.48 93.8158 9.624 94.3118 9.912C94.5838 9.384 94.9038 8.648 95.2718 7.704C95.6558 6.744 96.0958 5.584 96.5918 4.224C96.7838 3.696 96.9838 3.352 97.1918 3.192C97.4318 3.032 97.7518 2.96 98.1518 2.976L98.6558 3.048C98.7678 3.064 98.8638 3.08 98.9438 3.096C99.0238 3.096 99.0958 3.088 99.1598 3.072C98.9998 3.248 98.7038 3.744 98.2718 4.56C97.8398 5.36 97.2798 6.488 96.5918 7.944C95.8878 9.416 95.2878 10.728 94.7918 11.88C94.3118 13.032 93.9278 14.008 93.6398 14.808C93.3998 15.48 93.2798 16.064 93.2798 16.56C93.2798 17.104 93.4638 17.376 93.8318 17.376C94.3118 17.376 94.8238 16.936 95.3678 16.056L95.4638 15.936L95.8478 16.128L95.7518 16.248C95.0158 17.416 94.2398 18 93.4238 18ZM89.0798 17.28C89.6078 17.28 90.2478 16.76 90.9998 15.72C91.7998 14.584 92.8638 12.776 94.1918 10.296C93.9998 10.104 93.7678 10.008 93.4958 10.008C92.8398 10.008 92.0718 10.448 91.1918 11.328C90.3598 12.144 89.6638 13.08 89.1038 14.136C88.6558 14.968 88.4318 15.696 88.4318 16.32C88.4318 16.96 88.6478 17.28 89.0798 17.28ZM98.5485 18.096C97.7485 18.096 97.1325 17.856 96.7005 17.376C96.3485 16.976 96.1725 16.496 96.1725 15.936C96.1725 15.12 96.4285 14.712 96.9405 14.712C97.1325 14.712 97.3085 14.784 97.4685 14.928C97.6285 15.088 97.7085 15.272 97.7085 15.48C97.7085 15.608 97.6765 15.712 97.6125 15.792C97.4045 16.048 97.3005 16.328 97.3005 16.632C97.3005 16.936 97.3965 17.184 97.5885 17.376C97.7965 17.584 98.0605 17.688 98.3805 17.688C98.7165 17.688 99.0205 17.576 99.2925 17.352C99.6605 17.016 99.8445 16.552 99.8445 15.96C99.8445 15.448 99.7085 14.872 99.4365 14.232C99.3245 14.072 99.1885 13.864 99.0285 13.608C98.8845 13.352 98.7165 13.048 98.5245 12.696C98.4125 12.504 98.3325 12.312 98.2845 12.12C98.2525 11.912 98.2365 11.712 98.2365 11.52C98.2365 10.848 98.4845 10.312 98.9805 9.912C99.4925 9.496 100.149 9.288 100.949 9.288C101.173 9.288 101.389 9.312 101.597 9.36C101.821 9.408 102.021 9.496 102.197 9.624C102.565 9.896 102.749 10.232 102.749 10.632C102.749 10.808 102.717 10.968 102.653 11.112C102.509 11.528 102.197 11.736 101.717 11.736C101.189 11.736 100.925 11.464 100.925 10.92C100.925 10.76 100.949 10.624 100.997 10.512C101.045 10.352 101.221 10.192 101.525 10.032C101.413 9.824 101.205 9.72 100.901 9.72C100.629 9.72 100.429 9.784 100.301 9.912C99.9165 10.248 99.7245 10.672 99.7245 11.184C99.7245 11.536 99.8205 11.92 100.013 12.336C100.045 12.4 100.357 12.904 100.949 13.848C101.349 14.488 101.549 15.024 101.549 15.456C101.549 16.144 101.229 16.752 100.589 17.28C99.9485 17.824 99.2685 18.096 98.5485 18.096ZM112.811 19.512C110.875 19.512 109.363 19.056 108.275 18.144C107.299 17.328 106.811 16.28 106.811 15C106.811 13.576 107.403 12.296 108.587 11.16C109.899 9.896 111.627 9.16 113.771 8.952C113.595 8.696 113.443 8.424 113.315 8.136C112.867 8.12 112.435 8.088 112.019 8.04C111.603 7.976 111.211 7.904 110.843 7.824C109.515 7.504 108.483 6.992 107.747 6.288C107.075 5.632 106.739 4.92 106.739 4.152C106.739 3.288 107.155 2.56 107.987 1.968C108.819 1.408 109.867 1.128 111.131 1.128C111.739 1.128 112.355 1.2 112.979 1.344C113.603 1.472 114.227 1.688 114.851 1.992C114.899 2.008 114.923 2.056 114.923 2.136C114.923 2.296 114.851 2.344 114.707 2.28C113.539 1.72 112.395 1.44 111.275 1.44C110.283 1.44 109.491 1.688 108.899 2.184C108.307 2.68 108.011 3.328 108.011 4.128C108.011 4.848 108.275 5.512 108.803 6.12C109.411 6.792 110.235 7.248 111.275 7.488C111.579 7.552 111.891 7.608 112.211 7.656C112.531 7.704 112.859 7.736 113.195 7.752C113.131 7.496 113.099 7.2 113.099 6.864C113.099 5.728 113.555 4.704 114.467 3.792C115.555 2.704 117.099 1.992 119.099 1.656C119.307 1.624 119.507 1.6 119.699 1.584C119.907 1.568 120.107 1.56 120.299 1.56C121.163 1.56 121.867 1.744 122.411 2.112C122.955 2.464 123.227 2.936 123.227 3.528C123.227 4.456 122.579 5.376 121.283 6.288C119.635 7.424 117.331 8.04 114.371 8.136C114.387 8.392 114.451 8.64 114.563 8.88C114.835 8.864 115.107 8.864 115.379 8.88C115.651 8.88 115.923 8.888 116.195 8.904C116.771 8.952 117.059 9.168 117.059 9.552C117.059 9.92 116.747 10.104 116.123 10.104C115.307 10.104 114.619 9.824 114.059 9.264C112.587 9.504 111.379 10.248 110.435 11.496C109.587 12.664 109.163 13.936 109.163 15.312C109.163 16.432 109.459 17.336 110.051 18.024C110.691 18.808 111.611 19.2 112.811 19.2C113.579 19.2 114.307 19.04 114.995 18.72C115.683 18.4 116.299 17.984 116.843 17.472C117.387 16.96 117.811 16.424 118.115 15.864C118.435 15.304 118.595 14.784 118.595 14.304C118.595 13.856 118.427 13.488 118.091 13.2C117.771 12.896 117.243 12.744 116.507 12.744C116.011 12.744 115.475 12.864 114.899 13.104C114.339 13.328 113.795 13.624 113.267 13.992C112.739 14.344 112.283 14.712 111.899 15.096C111.515 15.48 111.259 15.816 111.131 16.104C111.099 16.2 111.035 16.224 110.939 16.176C110.843 16.128 110.811 16.056 110.843 15.96C111.019 15.544 111.307 15.12 111.707 14.688C112.107 14.256 112.579 13.848 113.123 13.464C113.667 13.08 114.251 12.776 114.875 12.552C115.499 12.312 116.131 12.192 116.771 12.192C117.987 12.192 118.867 12.408 119.411 12.84C119.955 13.272 120.227 13.792 120.227 14.4C120.227 14.944 120.043 15.512 119.675 16.104C119.307 16.696 118.787 17.256 118.115 17.784C117.459 18.296 116.675 18.712 115.763 19.032C114.867 19.352 113.883 19.512 112.811 19.512ZM114.371 7.728C116.867 7.6 118.955 6.952 120.635 5.784C121.995 4.824 122.675 3.992 122.675 3.288C122.675 2.568 122.091 2.208 120.923 2.208C119.339 2.208 117.811 2.864 116.339 4.176C115.123 5.248 114.467 6.432 114.371 7.728ZM127.689 18C126.761 18 126.297 17.408 126.297 16.224C126.297 15.712 126.385 15.232 126.561 14.784C125.361 16.896 124.209 17.952 123.105 17.952C123.041 17.952 122.977 17.952 122.913 17.952C122.849 17.936 122.777 17.92 122.697 17.904C121.897 17.68 121.497 17.072 121.497 16.08C121.497 15.344 121.697 14.528 122.097 13.632C122.289 13.2 122.497 12.792 122.721 12.408C122.961 12.008 123.225 11.64 123.513 11.304C124.521 10.088 125.673 9.48 126.969 9.48C127.545 9.48 128.081 9.624 128.577 9.912C128.849 9.384 129.169 8.648 129.537 7.704C129.921 6.744 130.361 5.584 130.857 4.224C131.049 3.696 131.249 3.352 131.457 3.192C131.697 3.032 132.017 2.96 132.417 2.976L132.921 3.048C133.033 3.064 133.129 3.08 133.209 3.096C133.289 3.096 133.361 3.088 133.425 3.072C133.265 3.248 132.969 3.744 132.537 4.56C132.105 5.36 131.545 6.488 130.857 7.944C130.153 9.416 129.553 10.728 129.057 11.88C128.577 13.032 128.193 14.008 127.905 14.808C127.665 15.48 127.545 16.064 127.545 16.56C127.545 17.104 127.729 17.376 128.097 17.376C128.577 17.376 129.089 16.936 129.633 16.056L129.729 15.936L130.113 16.128L130.017 16.248C129.281 17.416 128.505 18 127.689 18ZM123.345 17.28C123.873 17.28 124.513 16.76 125.265 15.72C126.065 14.584 127.129 12.776 128.457 10.296C128.265 10.104 128.033 10.008 127.761 10.008C127.105 10.008 126.337 10.448 125.457 11.328C124.625 12.144 123.929 13.08 123.369 14.136C122.921 14.968 122.697 15.696 122.697 16.32C122.697 16.96 122.913 17.28 123.345 17.28ZM134.662 8.712C134.118 8.712 133.846 8.448 133.846 7.92C133.846 7.392 134.102 7.128 134.614 7.128C135.158 7.128 135.43 7.392 135.43 7.92C135.43 8.448 135.174 8.712 134.662 8.712ZM131.398 18C130.934 18 130.702 17.768 130.702 17.304C130.702 17.016 130.798 16.624 130.99 16.128C131.406 15.104 131.798 14.16 132.166 13.296C132.534 12.432 132.878 11.648 133.198 10.944C133.246 10.864 133.27 10.776 133.27 10.68C133.27 10.456 133.166 10.216 132.958 9.96L134.278 9.936C134.726 9.936 134.95 10.048 134.95 10.272C134.95 10.336 134.934 10.408 134.902 10.488C134.87 10.552 134.83 10.648 134.782 10.776L132.574 15.888C132.35 16.416 132.238 16.864 132.238 17.232C132.238 17.616 132.358 17.872 132.598 18H131.398ZM137.083 18C136.043 18 135.523 17.432 135.523 16.296C135.523 16.072 135.539 15.84 135.571 15.6C135.619 15.36 135.691 15.12 135.787 14.88C136.635 12.64 137.355 10.816 137.947 9.408H136.387L136.675 8.88H138.163L138.739 7.2C138.947 6.608 139.123 6.256 139.267 6.144C139.379 6.064 139.635 6.024 140.035 6.024L141.067 6.048C140.747 6.32 140.507 6.648 140.347 7.032L139.555 8.88H141.379L141.091 9.408H139.339C139.227 9.664 139.115 9.92 139.003 10.176C138.907 10.432 138.795 10.696 138.667 10.968C138.331 11.704 138.043 12.4 137.803 13.056C137.515 13.808 137.283 14.456 137.107 15C136.947 15.544 136.851 15.976 136.819 16.296C136.755 17.08 136.963 17.472 137.443 17.472C137.891 17.472 138.435 16.992 139.075 16.032L139.363 16.368C138.595 17.456 137.835 18 137.083 18ZM144.037 8.712C143.493 8.712 143.221 8.448 143.221 7.92C143.221 7.392 143.477 7.128 143.989 7.128C144.533 7.128 144.805 7.392 144.805 7.92C144.805 8.448 144.549 8.712 144.037 8.712ZM140.773 18C140.309 18 140.077 17.768 140.077 17.304C140.077 17.016 140.173 16.624 140.365 16.128C140.781 15.104 141.173 14.16 141.541 13.296C141.909 12.432 142.253 11.648 142.573 10.944C142.621 10.864 142.645 10.776 142.645 10.68C142.645 10.456 142.541 10.216 142.333 9.96L143.653 9.936C144.101 9.936 144.325 10.048 144.325 10.272C144.325 10.336 144.309 10.408 144.277 10.488C144.245 10.552 144.205 10.648 144.157 10.776L141.949 15.888C141.725 16.416 141.613 16.864 141.613 17.232C141.613 17.616 141.733 17.872 141.973 18H140.773ZM146.218 18C145.05 18 144.466 17.288 144.466 15.864C144.466 15.16 144.634 14.416 144.97 13.632C145.45 12.496 146.13 11.536 147.01 10.752C147.874 9.984 148.69 9.6 149.458 9.6C150.642 9.6 151.234 10.296 151.234 11.688C151.234 12.408 151.058 13.168 150.706 13.968C150.29 14.928 149.69 15.8 148.906 16.584C147.93 17.528 147.034 18 146.218 18ZM146.602 17.472C146.97 17.472 147.362 17.32 147.778 17.016C148.306 16.632 148.906 15.832 149.578 14.616C150.314 13.304 150.682 12.248 150.682 11.448C150.682 10.728 150.378 10.368 149.77 10.368C149.29 10.368 148.746 10.672 148.138 11.28C147.546 11.872 147.042 12.624 146.626 13.536C146.066 14.736 145.786 15.696 145.786 16.416C145.786 17.12 146.058 17.472 146.602 17.472ZM150.756 18.168C151.076 17.384 151.476 16.416 151.956 15.264C152.436 14.112 153.02 12.784 153.708 11.28C153.852 10.96 153.988 10.696 154.116 10.488C154.244 10.28 154.364 10.12 154.476 10.008C154.7 9.784 154.988 9.672 155.34 9.672C155.372 9.672 155.428 9.672 155.508 9.672C155.588 9.672 155.7 9.688 155.844 9.72C156.068 9.736 156.236 9.736 156.348 9.72C155.756 10.072 154.868 11.624 153.684 14.376C153.876 14.104 154.132 13.808 154.452 13.488C154.788 13.152 155.18 12.784 155.628 12.384C155.916 12.112 156.236 11.856 156.588 11.616C156.94 11.36 157.324 11.12 157.74 10.896C158.684 10.368 159.38 10.104 159.828 10.104C159.94 10.104 160.02 10.112 160.068 10.128C159.812 10.576 159.572 11.008 159.348 11.424C159.14 11.84 158.94 12.232 158.748 12.6C157.82 14.392 157.3 15.632 157.188 16.32C157.172 16.432 157.156 16.536 157.14 16.632C157.14 16.728 157.14 16.816 157.14 16.896C157.14 17.312 157.292 17.52 157.596 17.52C158.092 17.52 158.684 17.016 159.372 16.008L159.708 16.248C158.892 17.48 158.068 18.096 157.236 18.096C156.228 18.096 155.724 17.576 155.724 16.536C155.724 15.688 156.244 14.432 157.284 12.768C157.444 12.512 157.524 12.296 157.524 12.12C157.524 11.928 157.436 11.832 157.26 11.832C157.084 11.832 156.852 11.928 156.564 12.12C156.292 12.296 155.964 12.56 155.58 12.912C154.972 13.472 154.404 14.144 153.876 14.928C153.348 15.696 152.868 16.576 152.436 17.568C152.34 17.808 152.092 17.952 151.692 18C151.18 18.048 150.868 18.104 150.756 18.168Z" fill="white"/>
<path d="M0 21.432H159.588V21.912H0V21.432Z" fill="white"/>
</svg>
